PathFileType	4	(X/Y/Z)	c:/Users/goper/Files/vsCode/490R/osim_files/C11/C11_Slow_02.trc
DataRate	CameraRate	NumFrames	NumMarkers	Units                	OrigDataRate	OrigDataStartFrame	OrigNumFrames
120.00	120.00	4	36	mm	120.0	494	1316
                Frame#	Time	LPSIS			LASIS			LTH1			LTH2			LTH3			LTH4			LLFE			LMFE			LSH1			LSH2			LSH3			LSH4			LLMAL			LMMAL			LCAL			LMTP5			LTOE			LMTP1			RPSIS			RASIS			RTH1			RTH2			RTH3			RTH4			RLFE			RMFE			RSH1			RSH2			RSH3			RSH4			RLMAL			RMMAL			RCAL			RMTP1			RTOE			RMTP5		
		X1	Y1	Z1	X2	Y2	Z2	X3	Y3	Z3	X4	Y4	Z4	X5	Y5	Z5	X6	Y6	Z6	X7	Y7	Z7	X8	Y8	Z8	X9	Y9	Z9	X10	Y10	Z10	X11	Y11	Z11	X12	Y12	Z12	X13	Y13	Z13	X14	Y14	Z14	X15	Y15	Z15	X16	Y16	Z16	X17	Y17	Z17	X18	Y18	Z18	X19	Y19	Z19	X20	Y20	Z20	X21	Y21	Z21	X22	Y22	Z22	X23	Y23	Z23	X24	Y24	Z24	X25	Y25	Z25	X26	Y26	Z26	X27	Y27	Z27	X28	Y28	Z28	X29	Y29	Z29	X30	Y30	Z30	X31	Y31	Z31	X32	Y32	Z32	X33	Y33	Z33	X34	Y34	Z34	X35	Y35	Z35	X36	Y36	Z36

494	4.10833	1648.99548	1003.43408	288.45062	0.00000	0.00000	0.00000	1373.35657	659.26575	430.32684	1356.42761	614.95361	424.37109	1425.71082	633.94183	414.65497	0.00000	0.00000	0.00000	0.00000	0.00000	0.00000	1361.00073	547.73505	416.13745	1427.90552	468.26910	429.08148	1441.37097	425.48871	431.73648	1372.65430	447.08218	437.34787	1393.08044	405.45773	437.38303	1511.58337	162.79070	389.92389	1466.38916	163.54330	301.87323	1570.61426	140.99689	327.54187	1425.17041	80.34524	435.87274	1342.71082	80.23043	379.53098	1377.94739	69.07945	330.18912	1638.50195	1018.70740	203.02879	1475.71606	995.02716	132.11534	1562.31311	638.19708	98.92617	1559.73328	594.45996	107.18247	1499.63025	635.32330	114.82789	1508.00659	593.48346	118.14973	1551.94678	509.58154	126.14840	1579.86035	497.75732	239.63849	1629.43921	406.64914	113.54596	1632.36462	361.49619	117.90800	1567.53064	397.08813	122.68048	0.00000	0.00000	0.00000	1651.59705	100.03272	180.84454	1624.64038	110.27297	274.45349	1714.74170	65.95718	235.30453	1507.64978	48.25193	253.44753	1495.54114	63.55613	202.94949	1538.09521	42.66769	142.50087
495	4.11667	1641.40442	1003.30035	288.57108	0.00000	0.00000	0.00000	1365.99573	658.93341	429.93948	1348.74841	614.65143	424.18237	1416.72925	632.57977	413.56384	0.00000	0.00000	0.00000	0.00000	0.00000	0.00000	1352.44495	547.05328	416.31619	1416.28381	464.24088	429.54303	1427.79736	420.92154	432.23135	1357.91187	444.13834	437.44806	1378.55505	403.12048	437.96643	1485.38721	155.07556	391.42111	1440.41150	157.40620	303.23560	1540.60083	128.69504	330.41595	1394.99744	76.84698	437.62106	1312.69824	80.46534	381.40112	1346.60559	67.97930	332.17691	1630.91211	1018.55756	203.05281	1461.83508	995.46698	132.30403	1558.76221	638.11981	98.57531	1556.68579	594.40637	106.86703	1495.86511	634.58221	114.57611	1505.02869	592.81958	118.02535	1550.24878	509.43539	125.71733	1578.16162	497.79333	239.27913	1628.72583	406.64297	113.02354	1631.51660	361.63370	117.68336	1566.67456	397.06305	122.07093	0.00000	0.00000	0.00000	1651.46704	100.03528	180.90193	1624.51733	110.34268	274.39108	1714.65076	66.05844	235.33211	1507.58740	48.24071	253.42001	1495.50928	63.44008	202.83052	1538.09558	42.62112	142.45042
496	4.12500	1633.72595	1003.12903	288.69901	0.00000	0.00000	0.00000	1359.31775	658.35291	429.78598	1341.67798	614.09271	424.04144	1409.56567	631.68341	413.25394	0.00000	0.00000	0.00000	0.00000	0.00000	0.00000	1343.79333	545.92450	416.72369	1405.67139	460.57513	429.62991	1414.51111	416.09296	432.61862	1345.70581	442.65390	437.89005	1363.85852	400.85526	438.22559	1458.86230	147.59137	392.84100	1414.33057	151.56166	304.44080	0.00000	0.00000	0.00000	1364.97937	73.89559	438.86234	1282.81750	81.18472	382.89908	1316.84265	66.07329	333.73138	1623.13745	1018.32782	203.21442	1454.43445	994.51611	132.25073	1555.32874	637.49817	98.39649	1553.64014	594.26520	106.62579	1492.50415	633.87109	114.43570	1502.66223	592.19647	117.59305	1548.43445	509.23923	125.26958	1576.35791	497.87701	238.83977	1627.42700	406.87967	113.02092	1630.69287	361.81274	117.47745	1565.59070	396.85400	121.68409	0.00000	0.00000	0.00000	1651.46362	100.17451	180.87079	1624.42773	110.42026	274.35394	1714.57922	66.19477	235.35269	1507.58154	48.21420	253.38817	1495.49304	63.37311	202.77585	1538.09705	42.57887	142.39890
497	4.13333	1626.76465	1003.06573	288.69107	0.00000	0.00000	0.00000	1352.57471	657.35345	429.66833	1334.73376	613.01947	424.00729	1402.62817	630.49231	413.03430	0.00000	0.00000	0.00000	0.00000	0.00000	0.00000	1336.13220	544.57678	417.14432	1394.59875	456.00815	429.92657	1401.64343	411.18051	432.94550	1333.69104	440.88342	438.32727	1350.28918	398.41656	438.83450	1431.93359	140.39526	394.19904	1388.07556	146.42517	305.53253	1484.66809	108.54935	333.36319	1334.71045	71.62489	440.17157	1253.03540	82.59885	384.00250	1286.49878	65.70422	334.94836	1615.68140	1017.89673	203.24355	1450.56152	992.70624	131.75052	1551.91150	638.09601	98.00906	1550.68896	594.22766	106.35664	1489.08252	633.13000	114.34531	1499.16675	591.60248	117.65727	1546.49756	508.98932	124.91419	1574.57373	497.86420	238.59807	1626.42090	407.02393	112.80836	1629.81860	361.92578	117.33681	1564.60461	396.74786	121.14977	0.00000	0.00000	0.00000	1651.40454	100.22758	180.89821	1624.35388	110.47215	274.34299	1714.54456	66.31450	235.37253	1507.50098	48.22198	253.37958	1495.48706	63.28455	202.73386	1538.13416	42.54507	142.35646
